HIERARCHY
ROOT Hips
{
    OFFSET   0.000000   0.000000   0.000000
    CHANNELS 6 Xposition Yposition Zposition Zrotation Xrotation Yrotation
    JOINT Chest
    {
        OFFSET   0.000000   8.007240   0.000000
        CHANNELS 3 Zrotation Xrotation Yrotation
        JOINT Chest2
        {
            OFFSET   0.000000  22.077100   0.000000
            CHANNELS 3 Zrotation Xrotation Yrotation
            JOINT Neck
            {
                OFFSET   0.000000  23.254800   0.000000
                CHANNELS 3 Zrotation Xrotation Yrotation
                JOINT Head
                {
                    OFFSET   0.000000  14.370000   1.956600
                    CHANNELS 3 Zrotation Xrotation Yrotation
                    End Site
                    {
                        OFFSET   0.000000  19.566000   0.000000
                    }
                }
            }
            JOINT LeftCollar
            {
                OFFSET   3.911900  19.017000  -0.467064
                CHANNELS 3 Zrotation Xrotation Yrotation
                JOINT LeftShoulder
                {
                    OFFSET  10.383700   0.000000   0.000000
                    CHANNELS 3 Zrotation Xrotation Yrotation
                    JOINT LeftElbow
                    {
                        OFFSET  26.662100   0.001476   0.000517
                        CHANNELS 3 Zrotation Xrotation Yrotation
                        JOINT LeftWrist
                        {
                            OFFSET  28.869000  -0.000025  -0.000106
                            CHANNELS 3 Zrotation Xrotation Yrotation
                            JOINT LeftFinger0
                            {
                                OFFSET   2.044660  -2.323460   3.252850
                                CHANNELS 3 Zrotation Xrotation Yrotation
                                JOINT LeftFinger01
                                {
                                    OFFSET   3.088130   0.000000   0.000000
                                    CHANNELS 3 Zrotation Xrotation Yrotation
                                    JOINT LeftFinger02
                                    {
                                        OFFSET   2.639460   0.000000   0.000000
                                        CHANNELS 3 Zrotation Xrotation Yrotation
                                        End Site
                                        {
                                            OFFSET   2.582190   0.000000   0.000000
                                        }
                                    }
                                }
                            }
                            JOINT LeftFinger1
                            {
                                OFFSET   8.364480   0.000000   3.252850
                                CHANNELS 3 Zrotation Xrotation Yrotation
                                JOINT LeftFinger11
                                {
                                    OFFSET   4.646930   0.000000   0.000000
                                    CHANNELS 3 Zrotation Xrotation Yrotation
                                    JOINT LeftFinger12
                                    {
                                        OFFSET   2.323460   0.000000   0.000000
                                        CHANNELS 3 Zrotation Xrotation Yrotation
                                        End Site
                                        {
                                            OFFSET   2.273050   0.000000   0.000000
                                        }
                                    }
                                }
                            }
                            JOINT LeftFinger2
                            {
                                OFFSET   8.364490   0.000015   1.078090
                                CHANNELS 3 Zrotation Xrotation Yrotation
                                JOINT LeftFinger21
                                {
                                    OFFSET   5.111620   0.000000   0.000000
                                    CHANNELS 3 Zrotation Xrotation Yrotation
                                    JOINT LeftFinger22
                                    {
                                        OFFSET   2.788160   0.000016   0.000000
                                        CHANNELS 3 Zrotation Xrotation Yrotation
                                        End Site
                                        {
                                            OFFSET   2.727660   0.000000   0.000000
                                        }
                                    }
                                }
                            }
                            JOINT LeftFinger3
                            {
                                OFFSET   7.899780   0.000017  -1.078090
                                CHANNELS 3 Zrotation Xrotation Yrotation
                                JOINT LeftFinger31
                                {
                                    OFFSET   4.646930   0.000000   0.000000
                                    CHANNELS 3 Zrotation Xrotation Yrotation
                                    JOINT LeftFinger32
                                    {
                                        OFFSET   2.323470   0.000000   0.000000
                                        CHANNELS 3 Zrotation Xrotation Yrotation
                                        End Site
                                        {
                                            OFFSET   2.273050   0.000000   0.000000
                                        }
                                    }
                                }
                            }
                            JOINT LeftFinger4
                            {
                                OFFSET   7.435090   0.000000  -3.252850
                                CHANNELS 3 Zrotation Xrotation Yrotation
                                JOINT LeftFinger41
                                {
                                    OFFSET   3.717550   0.000000   0.000000
                                    CHANNELS 3 Zrotation Xrotation Yrotation
                                    JOINT LeftFinger42
                                    {
                                        OFFSET   1.858770   0.000000   0.000000
                                        CHANNELS 3 Zrotation Xrotation Yrotation
                                        End Site
                                        {
                                            OFFSET   1.818440   0.000000   0.000000
                                        }
                                    }
                                }
                            }
                        }
                    }
                }
            }
            JOINT RightCollar
            {
                OFFSET  -3.911900  19.017000  -0.467063
                CHANNELS 3 Zrotation Xrotation Yrotation
                JOINT RightShoulder
                {
                    OFFSET -10.383700   0.000019   0.000000
                    CHANNELS 3 Zrotation Xrotation Yrotation
                    JOINT RightElbow
                    {
                        OFFSET -26.662100   0.001175   0.000102
                        CHANNELS 3 Zrotation Xrotation Yrotation
                        JOINT RightWrist
                        {
                            OFFSET -28.869000   0.000016  -0.000079
                            CHANNELS 3 Zrotation Xrotation Yrotation
                            JOINT RightFinger0
                            {
                                OFFSET  -2.044660  -2.323490   3.252850
                                CHANNELS 3 Zrotation Xrotation Yrotation
                                JOINT RightFinger01
                                {
                                    OFFSET  -3.088140   0.000000   0.000000
                                    CHANNELS 3 Zrotation Xrotation Yrotation
                                    JOINT RightFinger02
                                    {
                                        OFFSET  -2.639460   0.000000   0.000000
                                        CHANNELS 3 Zrotation Xrotation Yrotation
                                        End Site
                                        {
                                            OFFSET  -2.582190   0.000000   0.000000
                                        }
                                    }
                                }
                            }
                            JOINT RightFinger1
                            {
                                OFFSET  -8.364480   0.000000   3.252850
                                CHANNELS 3 Zrotation Xrotation Yrotation
                                JOINT RightFinger11
                                {
                                    OFFSET  -4.646930   0.000000   0.000000
                                    CHANNELS 3 Zrotation Xrotation Yrotation
                                    JOINT RightFinger12
                                    {
                                        OFFSET  -2.323470   0.000000   0.000000
                                        CHANNELS 3 Zrotation Xrotation Yrotation
                                        End Site
                                        {
                                            OFFSET  -2.273050   0.000000   0.000000
                                        }
                                    }
                                }
                            }
                            JOINT RightFinger2
                            {
                                OFFSET  -8.364480   0.000000   1.078090
                                CHANNELS 3 Zrotation Xrotation Yrotation
                                JOINT RightFinger21
                                {
                                    OFFSET  -5.111620   0.000000   0.000000
                                    CHANNELS 3 Zrotation Xrotation Yrotation
                                    JOINT RightFinger22
                                    {
                                        OFFSET  -2.788160   0.000000   0.000000
                                        CHANNELS 3 Zrotation Xrotation Yrotation
                                        End Site
                                        {
                                            OFFSET  -2.727660   0.000000   0.000000
                                        }
                                    }
                                }
                            }
                            JOINT RightFinger3
                            {
                                OFFSET  -7.899780   0.000000  -1.078090
                                CHANNELS 3 Zrotation Xrotation Yrotation
                                JOINT RightFinger31
                                {
                                    OFFSET  -4.646930   0.000000   0.000000
                                    CHANNELS 3 Zrotation Xrotation Yrotation
                                    JOINT RightFinger32
                                    {
                                        OFFSET  -2.323470   0.000000   0.000000
                                        CHANNELS 3 Zrotation Xrotation Yrotation
                                        End Site
                                        {
                                            OFFSET  -2.273050   0.000000   0.000000
                                        }
                                    }
                                }
                            }
                            JOINT RightFinger4
                            {
                                OFFSET  -7.435090   0.000000  -3.252850
                                CHANNELS 3 Zrotation Xrotation Yrotation
                                JOINT RightFinger41
                                {
                                    OFFSET  -3.717550   0.000000   0.000000
                                    CHANNELS 3 Zrotation Xrotation Yrotation
                                    JOINT RightFinger42
                                    {
                                        OFFSET  -1.858770   0.000000   0.000000
                                        CHANNELS 3 Zrotation Xrotation Yrotation
                                        End Site
                                        {
                                            OFFSET  -1.818440   0.000000   0.000000
                                        }
                                    }
                                }
                            }
                        }
                    }
                }
            }
        }
    }
    JOINT LeftHip
    {
        OFFSET   9.783040   0.000000   0.000000
        CHANNELS 3 Zrotation Xrotation Yrotation
        JOINT LeftKnee
        {
            OFFSET   0.000032 -41.789100  -0.002222
            CHANNELS 3 Zrotation Xrotation Yrotation
            JOINT LeftAnkle
            {
                OFFSET   0.000087 -41.133200  -0.000135
                CHANNELS 3 Zrotation Xrotation Yrotation
                JOINT LeftToe
                {
                    OFFSET   0.000000  -6.358960  14.674500
                    CHANNELS 3 Zrotation Xrotation Yrotation
                    End Site
                    {
                        OFFSET   0.000000   0.000000   3.913200
                    }
                }
            }
        }
    }
    JOINT RightHip
    {
        OFFSET  -9.783040   0.000000   0.000000
        CHANNELS 3 Zrotation Xrotation Yrotation
        JOINT RightKnee
        {
            OFFSET   0.000047 -41.789100  -0.000896
            CHANNELS 3 Zrotation Xrotation Yrotation
            JOINT RightAnkle
            {
                OFFSET  -0.000117 -41.133300  -0.000248
                CHANNELS 3 Zrotation Xrotation Yrotation
                JOINT RightToe
                {
                    OFFSET   0.000000  -6.358970  14.674500
                    CHANNELS 3 Zrotation Xrotation Yrotation
                    End Site
                    {
                        OFFSET   0.000000   0.000000   3.913200
                    }
                }
            }
        }
    }
}
MOTION
Frames: 4
Frame Time:   0.016667
  0.015760  89.448200  -1.342770   0.916551  -9.318600   7.340880   1.098970   6.086320   0.153232   2.200270  12.174500   0.189879   1.006150   3.226450  -0.062602   1.667700   6.536590  -0.698780  -6.306530   0.444928  10.535300 -76.923600   9.069000  -1.624380   0.731958   3.922720 -12.097300   3.573010  -4.939680  -6.834310  34.829500  21.273700 -61.919300 -27.116600   0.216113   0.131868  -8.558180   0.104305   0.071704 -27.175300  -1.516400   2.951200 -22.266300  -0.008840  -0.111543 -15.586300   0.035930  -0.096776 -28.338700  -4.010590   7.387430 -37.415200  -0.001851  -0.122213 -24.918500   0.038722  -0.071803 -26.874700  -3.818140   7.487840 -27.509700   0.002391  -0.108111 -18.321500   0.041949  -0.058574 -27.039000  -3.846150   7.474890 -40.936100   0.033759  -0.085867 -27.263500   0.055752  -0.025714   1.110910   3.199220  13.441500  52.334500  -7.322630  61.486200 -20.112500  -0.209781  59.332700 -62.250200  34.353300  42.165500 -43.248800  43.141300  87.491300 -17.669100   0.002765  -0.002945 -13.834600   0.004388  -0.001313 -13.198200  -2.421780  10.213300   0.000000  -0.002708   0.003751   0.000000  -0.001866   0.001063 -12.795500   0.405397  -1.787690   0.000000  -0.004114   0.003974   0.000000  -0.004177   0.001100 -13.390200   3.550540 -14.583200   0.000000  -0.001922   0.001284   0.000000  -0.003728   0.001360  -2.229300   1.659050 -36.643100   0.000000  -0.000392   0.005384   0.000000  -0.001313   0.000407   2.976460  10.719700  -0.351391   0.364357   0.818424  10.600300  -3.833800  -2.626690  -2.994810  -0.000000   0.000000   0.000000  -1.658060  12.775400  -4.213710   1.281170   0.379112 -15.673900   0.971143  -3.280990  -3.109000  -0.000000   0.000000   0.000000
  0.002537  89.448300  -1.335960   0.901046  -9.246520   7.324390   1.106270   6.073940   0.177482   2.212700  12.150200   0.238335   0.992895   3.193220  -0.062261   1.645270   6.469400  -0.722910  -6.334350   0.399874  10.503500 -77.003500   8.967010  -1.542250   0.775696   3.899660 -11.891100   3.582750  -4.856960  -6.799500  34.722300  21.209500 -62.006800 -27.170000   0.216114   0.131868  -8.584860   0.104322   0.071703 -27.242400  -1.500350   2.909710 -22.320900  -0.009025  -0.111524 -15.624600   0.035898  -0.096765 -28.337100  -4.011040   7.385800 -37.422600  -0.001634  -0.122298 -24.923400   0.039844  -0.071705 -26.884800  -3.819350   7.485480 -27.551400   0.005389  -0.108507 -18.349200   0.043969  -0.058418 -27.061800  -3.846280   7.472620 -40.970000   0.040181  -0.085658 -27.286000   0.058201  -0.025193   1.123520   3.218980  13.455900  52.224300  -7.134720  61.487600 -20.253600  -0.277886  59.367900 -62.161500  34.372400  42.106600 -43.275300  43.141400  87.490600 -17.677200   0.002841  -0.002923 -13.838600   0.004308  -0.001296 -13.128800  -2.409880  10.220000   0.000000  -0.002700   0.003752   0.000000  -0.001867   0.001128 -12.647000   0.428934  -1.912680   0.000000  -0.004100   0.003961   0.000000  -0.004106   0.001164 -13.247200   3.513540 -14.591900   0.000000  -0.001920   0.001408   0.000000  -0.003617   0.001413  -2.127050   1.585970 -36.688300   0.000000  -0.000417   0.005176   0.000000  -0.001290   0.000127   2.997900  10.662300  -0.380003   0.359430   0.812250  10.612000  -3.843620  -2.631400  -2.964820   0.000000   0.000000   0.000000  -1.663050  12.721800  -4.228660   1.311100   0.361329 -15.656000   0.960536  -3.287540  -3.098010   0.000000   0.000000  -0.000000
 -0.015480  89.448300  -1.322240   0.885248  -9.178130   7.302970   1.109810   6.056970   0.196291   2.217390  12.116600   0.276172   0.988329   3.163320  -0.061903   1.637630   6.408850  -0.747137  -6.365140   0.374035  10.472000 -77.062400   8.927090  -1.497960   0.787753   3.834500 -11.668400   3.581500  -4.703770  -6.770750  34.655700  21.139800 -62.102900 -27.195400   0.216115   0.131864  -8.597550   0.104324   0.071692 -27.287000  -1.468160   2.843650 -22.355600  -0.009052  -0.111393 -15.648900   0.035673  -0.096689 -28.336400  -4.011150   7.384170 -37.430000  -0.001438  -0.122311 -24.928300   0.040004  -0.071022 -26.893800  -3.820270   7.483110 -27.589500   0.006320  -0.108563 -18.374600   0.044257  -0.057327 -27.084600  -3.846390   7.470350 -41.003900   0.041098  -0.084192 -27.308600   0.058550  -0.021547   1.137570   3.266950  13.475600  52.200000  -6.950770  61.499400 -20.411600  -0.321451  59.425600 -62.072600  34.391500  42.047800 -43.279000  43.142600  87.490400 -17.684900   0.002913  -0.002902 -13.842400   0.004227  -0.001278 -13.059400  -2.397990  10.224700   0.000000  -0.002692   0.003753   0.000000  -0.001869   0.001192 -12.543400   0.443671  -1.992110   0.000000  -0.004086   0.003947   0.000000  -0.004035   0.001227 -13.157600   3.490370 -14.597300   0.000000  -0.001919   0.001534   0.000000  -0.003505   0.001466  -2.024470   1.512640 -36.750700   0.000000  -0.000444   0.004965  -0.000000  -0.001263  -0.000156   3.028700  10.612800  -0.411026   0.350464   0.800810  10.625800  -3.853780  -2.636120  -2.930780  -0.000000   0.000000  -0.000000  -1.665210  12.678500  -4.235930   1.344570   0.324755 -15.649900   0.942304  -3.289800  -3.076710  -0.000000   0.000000   0.000000
 -0.040016  89.448300  -1.305620   0.872663  -9.107750   7.276400   1.107700   6.029740   0.206046   2.211620  12.062400   0.296521   0.988390   3.140320  -0.061513   1.637280   6.362170  -0.747131  -6.395030   0.370613  10.454500 -77.091700   8.948460  -1.472240   0.756801   3.705820 -11.465400   3.540490  -4.539030  -6.740670  34.619100  21.125100 -62.213300 -27.159100   0.083585   0.053450  -8.579480   0.040358   0.027944 -27.288400  -1.416680   2.743140 -22.354100  -0.003648  -0.045716 -15.647600   0.014951  -0.040418 -28.334900  -4.011160   7.390420 -37.367200  -0.001346  -0.048891 -24.886500   0.015428  -0.028432 -26.885200  -3.821120   7.489630 -27.554600   0.000746  -0.041669 -18.351300   0.016157  -0.022080 -27.057600  -3.846390   7.478200 -40.963700   0.010991  -0.029932 -27.281800   0.019376  -0.007984   1.155500   3.343420  13.512200  52.283200  -6.786990  61.529700 -20.533600  -0.317170  59.480600 -62.074800  34.400600  42.105600 -43.476000  43.298600  87.688100 -17.704600   0.002994  -0.002884 -13.852300   0.004166  -0.001260 -13.256300  -2.440950  10.224800   0.000000  -0.002685   0.003739   0.000000  -0.001866   0.001253 -12.712900   0.435226  -1.929430   0.000000  -0.004072   0.003939   0.000000  -0.003965   0.001279 -13.278800   3.521860 -14.589900   0.000000  -0.001915   0.001661   0.000000  -0.003398   0.001523  -2.078320   1.553640 -36.771000   0.000030  -0.000464   0.004738  -0.000000  -0.001243  -0.000432   3.054430  10.568700  -0.451941   0.341411   0.771586  10.658600  -3.861850  -2.632230  -2.898100  -0.000000   0.000000   0.000000  -1.667920  12.639200  -4.236600   1.384250   0.275161 -15.646300   0.917711  -3.282890  -3.053470  -0.000000   0.000000   0.000000
